HIERARCHY
ROOT hips
{
  OFFSET 0 9.313263304106702 1.2146308026317778
  CHANNELS 6 Xposition Yposition Zposition Yrotation Xrotation Zrotation
  JOINT spine
  {
    OFFSET -6.402521e-31 0.5173342420023708 0
    CHANNELS 3 Yrotation Xrotation Zrotation
    JOINT chest
    {
      OFFSET 0 1.130544299341115 0
      CHANNELS 3 Yrotation Xrotation Zrotation
      JOINT upperChest
      {
        OFFSET 0 1.0863555061129995 0
        CHANNELS 3 Yrotation Xrotation Zrotation
        JOINT neck
        {
          OFFSET 0 1.3773706506454462 0
          CHANNELS 3 Yrotation Xrotation Zrotation
          JOINT head
          {
            OFFSET 0 0.7374408940073979 0
            CHANNELS 3 Yrotation Xrotation Zrotation
            JOINT leftEye
            {
              OFFSET 0.25066580148932727 0.6408406698778757 0.15963719178883284
              CHANNELS 3 Yrotation Xrotation Zrotation
              End Site
              {
                OFFSET 0.25066580148932727 0.6408406698778757 0.15963719178883284
              }
            }
            JOINT rightEye
            {
              OFFSET -0.25066576739704244 0.6408406384191823 0.15963727561643756
              CHANNELS 3 Yrotation Xrotation Zrotation
              End Site
              {
                OFFSET -0.25066576739704244 0.6408406384191823 0.15963727561643756
              }
            }
          }
        }
        JOINT leftShoulder
        {
          OFFSET 0.3761817444281191 1.0539491987447769 0
          CHANNELS 3 Yrotation Xrotation Zrotation
          JOINT leftUpperArm
          {
            OFFSET 0.8702844380000002 0 0
            CHANNELS 3 Yrotation Xrotation Zrotation
            JOINT leftLowerArm
            {
              OFFSET 2.198527310000323 0 0
              CHANNELS 3 Yrotation Xrotation Zrotation
              JOINT leftHand
              {
                OFFSET 2.146852313968281 0 0
                CHANNELS 3 Yrotation Xrotation Zrotation
                JOINT leftIndexProximal
                {
                  OFFSET 0.6585177834681599 0.07380250427007962 0.18382213159631788
                  CHANNELS 3 Yrotation Xrotation Zrotation
                  JOINT leftIndexIntermediate
                  {
                    OFFSET 0.3323021288626682 -0.009606893929485771 -0.012820872253340998
                    CHANNELS 3 Yrotation Xrotation Zrotation
                    JOINT leftIndexDistal
                    {
                      OFFSET 0.2045908926985518 -0.0071133989147997845 -0.006828784783599051
                      CHANNELS 3 Yrotation Xrotation Zrotation
                      End Site
                      {
                        OFFSET 0.2045908926985518 -0.0071133989147997845 -0.006828784783599051
                      }
                    }
                  }
                }
                JOINT leftLittleProximal
                {
                  OFFSET 0.6110054258835662 0.07380246363125398 -0.29175655876064077
                  CHANNELS 3 Yrotation Xrotation Zrotation
                  JOINT leftLittleIntermediate
                  {
                    OFFSET 0.3144281999999998 -2.5124724523095665e-9 1.8658118799974588e-7
                    CHANNELS 3 Yrotation Xrotation Zrotation
                    JOINT leftLittleDistal
                    {
                      OFFSET 0.18116185580251631 0.002815456192251098 0.0034826415518049436
                      CHANNELS 3 Yrotation Xrotation Zrotation
                      End Site
                      {
                        OFFSET 0.18116185580251631 0.002815456192251098 0.0034826415518049436
                      }
                    }
                  }
                }
                JOINT leftMiddleProximal
                {
                  OFFSET 0.6637478005691111 0.07380246480054087 0.02046981859247815
                  CHANNELS 3 Yrotation Xrotation Zrotation
                  JOINT leftMiddleIntermediate
                  {
                    OFFSET 0.3705733999999994 -2.9611069152224445e-9 9.35054791928458e-8
                    CHANNELS 3 Yrotation Xrotation Zrotation
                    JOINT leftMiddleDistal
                    {
                      OFFSET 0.22861063500000056 -1.82673876025774e-9 -1.6740782024515788e-7
                      CHANNELS 3 Yrotation Xrotation Zrotation
                      End Site
                      {
                        OFFSET 0.22861063500000056 -1.82673876025774e-9 -1.6740782024515788e-7
                      }
                    }
                  }
                }
                JOINT leftRingProximal
                {
                  OFFSET 0.6561845547265777 0.07380246406440083 -0.13588087571513918
                  CHANNELS 3 Yrotation Xrotation Zrotation
                  JOINT leftRingIntermediate
                  {
                    OFFSET 0.3437531000000005 -2.746796123886952e-9 1.4935781944558357e-7
                    CHANNELS 3 Yrotation Xrotation Zrotation
                    JOINT leftRingDistal
                    {
                      OFFSET 0.1983118991198174 -0.002467117924596085 -0.004538141969590015
                      CHANNELS 3 Yrotation Xrotation Zrotation
                      End Site
                      {
                        OFFSET 0.1983118991198174 -0.002467117924596085 -0.004538141969590015
                      }
                    }
                  }
                }
                JOINT leftThumbProximal
                {
                  OFFSET 0.09767004258864787 -0.14930060425447422 -0.07008212897521154
                  CHANNELS 3 Yrotation Xrotation Zrotation
                  JOINT leftThumbIntermediate
                  {
                    OFFSET 0.36682123028154767 -0.015768465060082004 0.28693641268151077
                    CHANNELS 3 Yrotation Xrotation Zrotation
                    JOINT leftThumbDistal
                    {
                      OFFSET 0.21091084272403915 -0.016756648201192714 0.1933767059105508
                      CHANNELS 3 Yrotation Xrotation Zrotation
                      End Site
                      {
                        OFFSET 0.21091084272403915 -0.016756648201192714 0.1933767059105508
                      }
                    }
                  }
                }
              }
            }
          }
        }
        JOINT rightShoulder
        {
          OFFSET -0.37618174442811925 1.0539491987447769 0
          CHANNELS 3 Yrotation Xrotation Zrotation
          JOINT rightUpperArm
          {
            OFFSET -0.870284438 0 0
            CHANNELS 3 Yrotation Xrotation Zrotation
            JOINT rightLowerArm
            {
              OFFSET -2.1985273100003235 0 0
              CHANNELS 3 Yrotation Xrotation Zrotation
              JOINT rightHand
              {
                OFFSET -2.1468523139682802 0 0
                CHANNELS 3 Yrotation Xrotation Zrotation
                JOINT rightIndexProximal
                {
                  OFFSET -0.6585177834681599 0.07380250427007962 0.18382213159631788
                  CHANNELS 3 Yrotation Xrotation Zrotation
                  JOINT rightIndexIntermediate
                  {
                    OFFSET -0.3323021288626682 -0.009606893929485771 -0.012820872253340998
                    CHANNELS 3 Yrotation Xrotation Zrotation
                    JOINT rightIndexDistal
                    {
                      OFFSET -0.2045908926985518 -0.0071133989147997845 -0.006828784783599051
                      CHANNELS 3 Yrotation Xrotation Zrotation
                      End Site
                      {
                        OFFSET -0.2045908926985518 -0.0071133989147997845 -0.006828784783599051
                      }
                    }
                  }
                }
                JOINT rightLittleProximal
                {
                  OFFSET -0.6110054258835662 0.07380246363125398 -0.29175655876064077
                  CHANNELS 3 Yrotation Xrotation Zrotation
                  JOINT rightLittleIntermediate
                  {
                    OFFSET -0.3144281999999998 -2.5124724523095665e-9 1.8658118799974588e-7
                    CHANNELS 3 Yrotation Xrotation Zrotation
                    JOINT rightLittleDistal
                    {
                      OFFSET -0.18116185580251631 0.002815456192251098 0.0034826415518049436
                      CHANNELS 3 Yrotation Xrotation Zrotation
                      End Site
                      {
                        OFFSET -0.18116185580251631 0.002815456192251098 0.0034826415518049436
                      }
                    }
                  }
                }
                JOINT rightMiddleProximal
                {
                  OFFSET -0.6637478005691111 0.07380246480054087 0.02046981859247815
                  CHANNELS 3 Yrotation Xrotation Zrotation
                  JOINT rightMiddleIntermediate
                  {
                    OFFSET -0.3705733999999994 -2.9611069152224445e-9 9.35054791928458e-8
                    CHANNELS 3 Yrotation Xrotation Zrotation
                    JOINT rightMiddleDistal
                    {
                      OFFSET -0.22861063500000056 -1.82673876025774e-9 -1.6740782024515788e-7
                      CHANNELS 3 Yrotation Xrotation Zrotation
                      End Site
                      {
                        OFFSET -0.22861063500000056 -1.82673876025774e-9 -1.6740782024515788e-7
                      }
                    }
                  }
                }
                JOINT rightRingProximal
                {
                  OFFSET -0.6561845547265777 0.07380246406440083 -0.13588087571513918
                  CHANNELS 3 Yrotation Xrotation Zrotation
                  JOINT rightRingIntermediate
                  {
                    OFFSET -0.3437531000000005 -2.746796123886952e-9 1.4935781944558357e-7
                    CHANNELS 3 Yrotation Xrotation Zrotation
                    JOINT rightRingDistal
                    {
                      OFFSET -0.1983118991198174 -0.002467117924596085 -0.004538141969590015
                      CHANNELS 3 Yrotation Xrotation Zrotation
                      End Site
                      {
                        OFFSET -0.1983118991198174 -0.002467117924596085 -0.004538141969590015
                      }
                    }
                  }
                }
                JOINT rightThumbProximal
                {
                  OFFSET -0.09767004258864787 -0.14930060425447422 -0.07008212897521154
                  CHANNELS 3 Yrotation Xrotation Zrotation
                  JOINT rightThumbIntermediate
                  {
                    OFFSET -0.36682123028154767 -0.015768465060082004 0.28693641268151077
                    CHANNELS 3 Yrotation Xrotation Zrotation
                    JOINT rightThumbDistal
                    {
                      OFFSET -0.21091084272403915 -0.016756648201192714 0.1933767059105508
                      CHANNELS 3 Yrotation Xrotation Zrotation
                      End Site
                      {
                        OFFSET -0.21091084272403915 -0.016756648201192714 0.1933767059105508
                      }
                    }
                  }
                }
              }
            }
          }
        }
      }
    }
  }
  JOINT leftUpperLeg
  {
    OFFSET 0.7715603 -0.3993844658041501 0
    CHANNELS 3 Yrotation Xrotation Zrotation
    JOINT leftLowerLeg
    {
      OFFSET 0 -3.529830000249343 0
      CHANNELS 3 Yrotation Xrotation Zrotation
      JOINT leftFoot
      {
        OFFSET 0 -4.154939295409685 0.004208579085223096
        CHANNELS 3 Yrotation Xrotation Zrotation
        JOINT leftToes
        {
          OFFSET 0 -0.6353414391261847 1.10414981190622
          CHANNELS 3 Yrotation Xrotation Zrotation
          End Site
          {
            OFFSET 0 -0.6015820691747853 1.10414981190622
          }
        }
      }
    }
  }
  JOINT rightUpperLeg
  {
    OFFSET -0.7715603 -0.3993844658041501 0
    CHANNELS 3 Yrotation Xrotation Zrotation
    JOINT rightLowerLeg
    {
      OFFSET 0 -3.529830000249343 0
      CHANNELS 3 Yrotation Xrotation Zrotation
      JOINT rightFoot
      {
        OFFSET 0 -4.154939295409685 0.004208579085223096
        CHANNELS 3 Yrotation Xrotation Zrotation
        JOINT rightToes
        {
          OFFSET 0 -0.6353414391261847 1.10414981190622
          CHANNELS 3 Yrotation Xrotation Zrotation
          End Site
          {
            OFFSET 0 -0.6015820691747853 1.10414981190622
          }
        }
      }
    }
  }
}
MOTION
Frames: 4
Frame Time: 0.03333333333333333
-0.37931000644510443 8.73738115484064 1.2306670309932326 0.08982264230824762 -8.963783435887848 -4.132268289013026 1.2441905071726358 5.8019331923537125 10.960481664089436 0.2534622630415487 0.48025345968669275 -3.674189597991149 0 0 0 -2.7407656700191567 3.5524979278105993 1.4917414864668685 -8.596094615938927 -1.7903162424904906 -9.98233618422418 0 0 0 0 0 0 -14.425278533581798 0.8565009090236176 -7.333435114125727 -21.063728504868646 4.586511703620937 -68.56163822167667 -8.443170449556895 -0.000012128317872183343 -0.000011737615074668616 -4.2327875576775105 28.0096359216372 -0.008481728113228698 -3.3988421447464225 -0.532616911117669 -8.44794678727165 0.5040625859876667 0.018015508021888713 -4.080735446706708 0.8213794351829078 0.0498061959326158 -6.8856637186758345 12.352350990609283 3.928936247700752 -18.507560225962084 1.3815146942645702 3.0156598723335106 -54.06949118618545 6.145448001400406 4.164391004035392 -64.79847577272966 0.055700354971253724 -0.059440919193536536 -7.998297372285711 1.870881808605025 0.25684742927325527 -15.674469010430764 2.1843454296334652 0.35362616467229074 -18.39066201714872 3.957146790013764 0.7464665045850092 -12.93912889337537 3.7813963282768923 1.1254722943631719 -33.127454768679456 4.6713629807669665 1.81536502035655 -42.4440377762899 10.196568483102135 -0.2586473624146607 8.061666982806363 -1.0781913211679115 0.8222418592616839 -1.2681181488872453 -5.012651693339476 -4.140313710526408 3.571065656315086 -1.1245513409292167 1.117583728909483 21.07298517266227 26.08587297336822 11.765064516137409 55.524024158161296 12.573929935474155 -0.00001037361898374961 -0.000022773439181316314 10.127906089860454 8.857834600925063 8.988018416114326 1.0229170202435731 -0.16569596449133178 6.639191880221974 -2.3901365229946294 0.4285772361102951 20.260293930038866 -1.1416582874155001 0.09221968651599192 9.325156958945202 -11.942281802905804 4.944602836884238 23.813827930745873 -4.919242148399176 1.9637808256023799 45.306537319111065 -5.360747347567344 2.3225041378057227 48.9065826853457 -2.7977616573892488 0.4247439796415835 10.66496477117826 -2.883257716486503 0.6491372966163393 25.22184188524585 -3.2788165392391675 -0.9987409874863034 22.15767251730501 -6.746225413995189 1.5070182893086213 14.122974759815067 -4.144573307270449 1.348933081180733 36.12828444165511 -6.78921801956278 -0.4946859583444437 41.82384389201954 -12.823774328986689 0.741857499060709 -7.960023471508196 -1.405168088752794 2.0461158069906378 1.2657418354826835 1.5296061946840185 -1.9259951554013688 -2.0635539540657444 18.272756258419275 -11.148045098840626 15.343721632845456 2.1691965186410815 25.63176846103511 1.2164516102662546 2.7853278816606917 -6.497658783600747 -8.679196610366526 -0.00001196184680091086 -0.8056317778370763 -0.0000028069268804810743 9.828811306182335 -4.150015332496934 3.7805858111923416 -9.472838311017762 24.490191491518512 2.0514779916002266 -28.02056538268475 -11.722061395062449 3.7192632934619705 0.000004560725292382034 -0.0000492798354451802 0.0000017075390485054529
-0.3793751109730114 8.737216429276899 1.231109803758284 0.08167829064049904 -8.941074747051328 -4.141041717014176 1.2451082506044802 5.795136528531809 10.966374088738664 0.2533404189638734 0.4886461411928864 -3.6676015863838396 0 0 0 -2.7448951521774814 3.562091269772526 1.489858298080703 -8.619129276194192 -1.88446171955759 -9.949015346339202 0 0 0 0 0 0 -14.463587028182372 0.8580736827690615 -7.320468403567805 -21.030918177680746 4.577975711733043 -68.57406227250091 -8.44318480640395 -0.000009666389827001874 -0.000013711089714532994 -4.296410296315108 28.058941361676105 -0.01978279618057183 -3.3604361853820395 -0.5285032533214901 -8.465034244090859 0.5040614654530701 0.017999136244402605 -4.080757588544591 0.8218153399175071 0.049860780770715867 -6.889035519584339 12.363847550024287 3.9457093729143997 -18.639424174347663 1.3805401553065642 3.0142470558213854 -54.05513636031951 6.143646126544039 4.160287188958871 -64.76162280370663 0.07927977605776448 -0.05695283474169856 -8.015870796650894 1.8714257221116561 0.25702530946492347 -15.679156582266398 2.185921147530606 0.3541465496357164 -18.40456985094207 3.9740586064624233 0.749327850561379 -13.014496330215737 3.7822904046094243 1.1260366409507694 -33.1361944762673 4.6696035258531685 1.8137738555926977 -42.42428124613676 10.212026872530924 -0.2938748466314479 8.136105475406021 -1.078219707038602 0.8222412722318548 -1.2681280725966848 -5.059862735250291 -4.166008481459241 3.5818990902632266 -1.1153360122302605 1.1123478244483833 21.03866767970517 26.10442393653014 11.80984063460708 55.54850773863943 12.666725862071074 -0.0000030999462965055075 0.000013805472700149855 10.062703118562586 8.836235848934859 8.993311182452006 1.1127183819635302 -0.16962208609382104 6.657262002596185 -2.3453999296414976 0.4123290325152682 19.870120950825143 -1.0899858259062454 0.08392913440218848 8.895782022448795 -11.966582059493621 4.875298720094779 23.33045298476541 -4.916362421039086 1.9609864931967833 45.273793752313246 -5.369639326413507 2.3324235657279 49.01554589579167 -2.735765897338722 0.4124044333532411 10.463839076214374 -2.8334082092443404 0.6262244880654027 24.772222811191384 -3.2402209230582786 -1.043802635920261 21.797756394424564 -6.720005645442483 1.4770989596959643 13.804395073722324 -4.116767401888261 1.328696002637065 35.84682115318111 -6.7990417965346275 -0.5327142988827719 41.71320408832249 -12.973451185087715 0.7530526514984881 -8.035975927487945 -1.067823661851709 1.9223632888621227 1.3641510134343207 1.552703082995076 -1.939759841941493 -2.067037761514763 18.270408731724295 -11.182455455572882 15.34581320418225 2.181045744301705 25.656022607872146 1.2239318852135626 2.783289330832376 -6.510584869749414 -8.661159626419414 -0.000018110821116738386 -0.8192840305128601 -2.5078888755071406e-7 9.833045106977009 -4.175776763305971 3.790135539498391 -9.470387952642815 24.49236245773357 2.048018460214819 -28.028006338212883 -11.722903708396988 3.7214713759699958 0.000015272129157522143 -0.0000492798321882922 7.757614360400536e-12
-0.3789914738048207 8.73622114008123 1.2321068810932947 0.07158703133580939 -8.937298746011058 -4.141200625691276 1.2440929847306532 5.807513898148366 10.957969103768972 0.2532255014822769 0.5033153225020004 -3.6447560048340915 0 0 0 -2.749232423621744 3.5605273379982876 1.481930951014946 -8.650900673557267 -2.005589161880816 -9.92627933529453 0 0 0 0 0 0 -14.535076517385153 0.8520043305080651 -7.389367747212344 -21.011137043230185 4.601491048674975 -68.51742125443684 -8.443162347440415 -0.000005076343179122442 0.000010653280627780653 -4.277744814432073 27.986214704531566 0.010268929924919701 -3.318437258812353 -0.5249540196554181 -8.498873164351952 0.5042084155583249 0.018038463194927832 -4.082135301225621 0.8221865245858031 0.04989833015011336 -6.892136241162008 12.379067588816307 3.948993520174019 -18.690489393808164 1.3759608827288083 3.007503607410917 -53.987752335062346 6.135349840731036 4.141393564887504 -64.59139880393592 0.10523181149465569 -0.054234111347088346 -8.0294015180025 1.8706122494234472 0.2567766720715581 -15.672223390159827 2.1836887275489287 0.3534116232794881 -18.38489012717763 3.99356510459392 0.7511693313808868 -13.051986246487225 3.7795923887124157 1.1242898034183169 -33.10941546501503 4.660650941838298 1.805599805195671 -42.324383745250536 10.271369907667962 -0.22451409525962215 8.051431783940048 -1.078201352265133 0.8222381236173189 -1.268131273793262 -5.030023872768535 -4.149770939357512 3.575047936222742 -1.103125319213458 1.1065569795840324 20.9861222199137 26.107632864403662 11.81026890327836 55.579324366152505 12.72424755498677 0.000012247179627961753 -0.0000015251253319704123 10.021676521640272 8.858797186331756 9.014430702738904 1.161437533145881 -0.17031165808963775 6.568780614923056 -2.36644849253022 0.41994171925912954 20.053604884318467 -1.083895705432506 0.08300039444229332 8.84530208369495 -11.977037994063704 4.791363720598373 22.815517849286557 -4.912149984563812 1.9569254933588023 45.22591956480368 -5.376306877714933 2.3398838504393455 49.09735056532238 -2.692773504956933 0.4006582666831545 10.194961271903452 -2.828072722467112 0.6238044827625924 24.72431049037177 -3.2359964488254396 -1.0515936624587845 21.75506308336357 -6.6954041483611455 1.4431604687274822 13.445279944963891 -4.1055460167556745 1.3205770068680667 35.733596060447745 -6.803337602516018 -0.5343495597560749 41.72353925108377 -13.059443874719074 0.7599757584153755 -8.07793390866549 -0.8941298174089938 1.8577269109233516 1.4135546684367881 1.5704142676755681 -1.9502145605043009 -2.06967087300459 18.271930061796994 -11.214786167871456 15.346983226877926 2.1945458824214334 25.728623231170882 1.230939914721713 2.782672086569899 -6.553364707705998 -8.642993304946673 -0.00000438206491074769 -0.7994705028725029 0.0000040301267571088684 9.830722314330588 -4.204291323668062 3.7905991700181696 -9.487721217192124 24.551615982066522 2.0286824572477555 -28.03033492080462 -11.748856241264553 3.747370501817441 0.000004559593930915181 -0.000027685248042992304 -1.585995122975508e-12
-0.3785382888533852 8.735567439686168 1.23325313429168 0.08476000347664031 -8.938524278336581 -4.132770961841951 1.226930595808076 5.83211282943789 10.934361895033804 0.2530448699045711 0.5207556263821232 -3.6215528778263932 0 0 0 -2.7476527129948423 3.548518320883795 1.4711452770595432 -8.669724233356392 -2.119884496060998 -9.877488863211864 0 0 0 0 0 0 -14.512420754697882 0.8540812050006543 -7.370191739807816 -21.05643907003076 4.571668427747572 -68.54300775754331 -8.44162854010935 6.607133664202596e-7 0.0000056934033562062765 -4.222933263927928 27.96823307631832 0.037726450160302204 -3.2808453501013517 -0.5222073685147534 -8.539629393864306 0.5047074870697554 0.01809735190160072 -4.086531098527777 0.8229431441711836 0.0499789217438566 -6.898519369463116 12.39831555190849 3.9444731676227835 -18.682230510189495 1.373713686070638 3.0042267981419957 -53.95522878284131 6.129431889969019 4.127989436536347 -64.47044049111128 0.12925255804676508 -0.05179227765276185 -8.040545411606692 1.87098069271344 0.2569143978167005 -15.675458366402198 2.1828569955295483 0.35313312769453026 -18.377567402171486 4.012437171265399 0.7523387817699831 -13.06202629569184 3.7784300361250893 1.123522113218404 -33.097963351201344 4.654628973395662 1.8001182128287398 -42.25696005017504 10.259499161813196 -0.15480916064405012 7.926424567128545 -1.0782088222311066 0.8222447944108302 -1.268119429365887 -4.965528102500958 -4.1146257655572445 3.5603198510628986 -1.0867530729791772 1.1019599421297275 20.93537813522575 26.09486418137486 11.768532858634915 55.6102676990671 12.719104253684755 -0.000011887529629024338 -0.000016722688445984963 10.037473798064786 8.900514814327595 9.027456573363832 1.1736603356211197 -0.1692474645880696 6.479186817018772 -2.405657135310668 0.43433124665995665 20.396071448514427 -1.0993430248994955 0.08541322807367714 8.973501899486484 -11.976344588133252 4.7027363885951505 22.327258426623235 -4.907436811054287 1.95239059724722 45.17246900102342 -5.380747804307045 2.3448567547567576 49.151679775134106 -2.6689105515553706 0.39201354832191687 9.945967928136298 -2.8400818055721753 0.6292749909505319 24.832382760767324 -3.247326520949655 -1.0414092188593038 21.858319544297956 -6.673889876887759 1.4100601829556012 13.105322506383999 -4.101297798991414 1.31751552381243 35.690481497952874 -6.8006731210961435 -0.5166984344617109 41.78255811430063 -13.126427868018892 0.7948809719458396 -8.05976683430091 -0.8168096848586966 1.829297114828246 1.4361396644587263 1.5689322499452452 -1.9488972790541137 -2.069162614768192 18.265464265122947 -11.220025986172923 15.337534294689613 2.19185969660611 25.763131353669582 1.2317428799611954 2.783713807274486 -6.578203385075806 -8.648848434410887 -0.0000042809840149933985 -0.7816027347613006 -0.0000036492978182508254 9.825351805636986 -4.216114269799927 3.7796332644202306 -9.54298275143469 24.596984834877226 2.003419189569548 -28.033029001268602 -11.769760786200882 3.7731380029320243 -0.0000015588006378267487 -0.0000038008990229781472 0.000004268864567258969
